<?xml version="1.0" standalone="no"?>
<!DOCTYPE svg PUBLIC "-//W3C//DTD SVG 20010904//EN"
 "http://www.w3.org/TR/2001/REC-SVG-20010904/DTD/svg10.dtd">
<svg version="1.0" xmlns="http://www.w3.org/2000/svg"
 width="200.000000pt" height="200.000000pt" viewBox="0 0 200.000000 200.000000"
 preserveAspectRatio="xMidYMid meet">

<g transform="translate(0.000000,200.000000) scale(0.100000,-0.100000)"
fill="#000000" stroke="none">
<path d="M805 1923 c-35 -9 -44 -23 -38 -56 13 -70 68 -126 125 -128 13 0 -10
-9 -50 -19 -40 -11 -100 -34 -133 -51 -73 -39 -162 -127 -192 -190 l-22 -47
-113 -7 c-95 -6 -114 -10 -123 -26 -6 -12 -9 -201 -9 -509 l1 -491 -100 -106
c-99 -105 -115 -135 -89 -161 17 -17 1859 -17 1876 0 29 29 12 59 -89 163
l-101 104 1 215 c2 167 -1 215 -11 219 -10 4 -10 6 0 6 18 1 18 554 0 569 -7
5 -64 13 -126 17 l-112 7 -21 49 c-24 54 -109 141 -179 181 -56 33 -158 68
-202 69 -28 1 -26 3 13 9 26 4 58 16 72 25 25 16 67 88 67 113 0 16 -78 35
-123 29 -47 -6 -82 -29 -106 -68 l-19 -30 -18 37 c-11 21 -32 46 -49 55 -33
19 -99 30 -130 22z m125 -35 c18 -13 36 -30 40 -38 4 -8 13 -27 20 -42 15 -32
25 -29 33 11 10 48 60 76 135 75 34 0 67 -5 72 -10 13 -13 -17 -69 -52 -99
-40 -34 -127 -36 -135 -5 -10 37 -32 -9 -33 -67 0 -42 3 -53 16 -53 9 0 14 6
11 13 -21 58 -22 57 30 51 116 -14 213 -54 301 -123 63 -50 97 -103 100 -156
3 -58 -14 -79 -55 -65 -33 12 -49 43 -29 58 6 5 26 15 44 22 18 7 31 15 28 17
-2 3 -24 -4 -49 -15 l-45 -20 -23 50 c-44 93 -131 147 -240 148 -35 0 -80 0
-99 0 -140 2 -166 -2 -217 -26 -86 -42 -149 -131 -173 -249 -11 -52 -15 -233
-8 -305 2 -14 11 -36 21 -50 9 -13 17 -34 17 -45 0 -11 11 -42 23 -70 13 -27
22 -55 20 -62 -2 -6 3 -28 11 -48 20 -47 20 -55 0 -55 -27 0 -82 39 -103 74
-11 17 -31 84 -45 147 -41 187 -40 186 -55 84 -19 -141 -30 -185 -51 -215 -12
-16 -18 -36 -14 -47 5 -17 5 -17 -6 -1 -8 14 -6 26 9 55 33 66 40 113 45 303
4 204 15 268 56 350 65 127 218 221 399 244 l54 7 -6 -35 c-5 -29 -2 -36 10
-36 23 0 12 125 -12 149 -16 15 -17 14 -11 -11 6 -24 3 -28 -26 -36 -75 -20
-158 45 -158 123 0 24 2 25 59 25 44 0 66 -5 91 -22z m50 -138 c0 -5 -8 -10
-17 -10 -15 0 -16 2 -3 10 19 12 20 12 20 0z m70 0 c12 -8 11 -10 -7 -10 -13
0 -23 5 -23 10 0 13 11 13 30 0z m-72 -135 c19 -14 24 -14 44 -1 32 21 129 12
195 -19 57 -26 113 -91 113 -132 l0 -23 -41 20 c-50 26 -69 15 -69 -42 0 -46
15 -78 35 -78 8 0 15 -7 15 -15 0 -19 43 -40 64 -32 8 3 16 16 19 29 2 13 5 6
5 -17 0 -22 -5 -58 -12 -80 l-12 -40 -34 35 -33 35 7 -28 c7 -28 6 -28 -18
-12 -27 18 -72 126 -62 150 3 9 -8 53 -26 97 -30 80 -66 128 -96 128 -9 0 -4
-8 13 -22 49 -38 75 -111 75 -208 0 -96 -8 -139 -21 -118 -5 7 -9 29 -10 48
-1 21 -3 27 -6 15 -12 -48 -79 -95 -138 -95 -27 0 -35 4 -35 18 0 9 -5 24 -11
32 -8 12 -10 9 -6 -12 2 -16 1 -28 -4 -28 -8 0 -45 43 -53 63 -9 22 -26 -16
-27 -63 -2 -43 -2 -42 -9 15 -17 146 24 305 88 339 18 10 22 15 10 16 -37 0
-68 -47 -129 -195 -74 -182 -79 -191 -88 -176 -6 9 -11 8 -21 -4 -11 -14 -15
-10 -32 27 -75 164 24 365 184 374 28 2 53 6 56 9 10 10 48 5 70 -10z m310
-169 c42 -22 40 -58 -3 -79 -33 -16 -35 -16 -45 3 -11 21 -13 73 -3 83 10 10
21 9 51 -7z m72 -42 c0 -31 -23 -28 -28 4 -2 15 2 22 12 22 11 0 16 -9 16 -26z
m150 -244 c8 -229 15 -272 55 -334 13 -20 14 -29 5 -43 -9 -14 -10 -15 -6 -1
2 9 -6 30 -19 48 -25 33 -45 107 -45 162 0 17 -5 61 -12 97 l-12 66 -7 -45
c-14 -97 -52 -267 -66 -301 -16 -39 -38 -54 -91 -63 -31 -5 -32 -4 -21 16 6
11 13 35 15 52 2 17 13 56 23 86 11 30 20 65 21 77 0 12 8 30 18 40 16 16 18
35 18 145 -1 71 3 128 7 128 20 0 68 43 63 56 -3 8 -1 14 4 14 5 0 12 17 16
37 7 36 7 36 17 13 5 -14 13 -126 17 -250z m-1200 246 c0 -2 -7 -6 -15 -10 -8
-3 -15 -1 -15 4 0 6 7 10 15 10 8 0 15 -2 15 -4z m1111 -46 c19 -11 27 -40 10
-40 -5 0 -16 -3 -24 -6 -17 -6 -29 19 -21 41 7 18 9 18 35 5z m-95 -14 c28
-28 9 -55 -26 -36 -16 9 -18 15 -10 30 13 24 17 24 36 6z m-864 -188 c-3 -209
-10 -252 -53 -351 -45 -102 -54 -211 -24 -289 6 -14 2 -18 -19 -18 l-26 0 0
420 0 420 63 0 62 0 -3 -182z m1198 -238 l0 -420 -29 0 -30 0 15 37 c23 53 22
161 0 212 -11 22 -23 38 -29 34 -6 -3 -7 -1 -4 4 4 6 -5 37 -20 68 -28 62 -29
78 -37 338 l-4 147 69 0 69 0 0 -420z m-837 338 c5 -35 4 -38 -19 -38 -13 0
-24 2 -24 5 0 7 33 75 35 72 1 -1 5 -19 8 -39z m397 -30 c0 -5 -14 -8 -30 -8
-28 0 -30 2 -24 28 12 56 15 58 34 22 11 -19 19 -38 20 -42z m-373 -69 c12
-28 27 -48 32 -45 5 4 12 2 16 -4 16 -26 135 -54 135 -32 0 4 16 14 36 21 26
9 45 27 67 62 26 42 34 49 63 49 26 0 39 -8 67 -42 38 -45 33 -64 -10 -47 -34
13 -83 11 -83 -3 0 -6 -3 -9 -6 -5 -7 7 -64 -49 -64 -63 0 -6 5 -10 10 -10 6
0 10 -20 10 -44 0 -58 29 -96 73 -96 45 1 67 21 88 82 l18 53 0 -44 c1 -37 3
-42 16 -31 8 7 15 19 15 28 0 8 3 12 7 9 3 -4 -2 -36 -12 -72 -12 -45 -26 -72
-44 -86 l-26 -21 25 7 c22 6 21 4 -9 -18 -85 -65 -389 -74 -518 -17 -44 19
-57 40 -25 40 12 1 10 4 -9 15 -26 14 -51 62 -68 130 -8 32 -7 36 2 22 7 -10
20 -28 29 -39 17 -19 17 -19 11 15 -3 19 -1 43 5 52 7 14 11 8 16 -30 12 -74
62 -111 121 -89 23 9 45 57 45 98 0 19 5 36 10 38 6 2 0 18 -13 35 -13 18 -28
29 -32 25 -5 -4 -5 -2 -1 5 10 17 -61 29 -97 15 -54 -20 -61 -4 -20 43 28 32
46 43 68 44 27 0 32 -5 52 -50z m283 22 c0 -5 -9 -19 -20 -32 l-21 -24 16 33
c15 31 25 41 25 23z m-137 -80 l22 -23 -34 6 c-19 3 -44 14 -55 24 -11 10 -16
11 -11 3 5 -9 4 -12 -3 -7 -7 4 -16 15 -21 25 -9 16 -7 17 35 6 24 -6 55 -22
67 -34z m72 25 c-21 -31 -40 -39 -55 -21 -10 12 -9 16 6 21 11 3 28 9 39 14
11 5 21 9 23 9 1 1 -5 -10 -13 -23z m275 -54 c-28 -5 -45 11 -36 34 6 15 9 15
32 -7 26 -24 26 -24 4 -27z m-650 22 c0 -9 -9 -18 -21 -21 -12 -3 -18 -11 -15
-19 3 -8 1 -14 -3 -14 -22 0 -21 35 1 52 29 22 38 22 38 2z m72 -49 c0 -5 -5
-11 -11 -13 -6 -2 -11 4 -11 13 0 9 5 15 11 13 6 -2 11 -8 11 -13z m409 -8
c-13 -13 -26 -3 -16 12 3 6 11 8 17 5 6 -4 6 -10 -1 -17z m-321 3 c0 -5 -2
-10 -4 -10 -3 0 -8 5 -11 10 -3 6 -1 10 4 10 6 0 11 -4 11 -10z m370 -11 c0
-16 -4 -19 -20 -14 -11 4 -20 2 -20 -4 0 -6 -7 -11 -15 -11 -23 0 -18 14 13
32 35 23 42 22 42 -3z m40 11 c0 -5 -2 -10 -4 -10 -3 0 -8 5 -11 10 -3 6 -1
10 4 10 6 0 11 -4 11 -10z m-450 -15 c0 -8 -4 -15 -10 -15 -5 0 -10 7 -10 15
0 8 5 15 10 15 6 0 10 -7 10 -15z m-293 -110 c-3 -54 -13 -99 -31 -140 -14
-33 -28 -85 -32 -115 -6 -47 -8 -51 -16 -30 -22 58 -38 -40 -18 -110 l10 -35
-20 25 c-11 14 -22 44 -26 67 -5 36 -4 62 8 155 1 9 6 14 11 11 5 -3 6 5 3 18
-6 21 -5 22 4 6 9 -13 9 -27 1 -49 -21 -61 -9 -52 15 12 32 80 58 166 75 245
16 73 23 48 16 -60z m263 105 c0 -5 -7 -10 -16 -10 -8 0 -12 5 -9 10 3 6 10
10 16 10 5 0 9 -4 9 -10z m763 -233 c13 -23 30 -60 37 -82 7 -22 15 -35 17
-28 2 6 -3 28 -11 48 -19 45 -19 42 -1 42 8 0 12 -4 9 -8 -3 -5 2 -22 11 -38
18 -36 19 -85 4 -149 -17 -69 -26 -70 -21 -3 3 38 0 61 -8 66 -7 4 -14 -2 -18
-16 -4 -18 -9 -7 -18 44 -7 38 -27 97 -43 131 -27 54 -31 73 -30 142 l1 79 23
-93 c13 -52 35 -112 48 -135z m-788 183 c3 -5 1 -10 -4 -10 -6 0 -11 5 -11 10
0 6 2 10 4 10 3 0 8 -4 11 -10z m30 0 c-3 -5 3 -10 15 -10 14 0 19 4 15 13 -4
6 0 4 8 -5 8 -10 20 -18 27 -18 9 0 7 -6 -5 -20 -21 -24 -67 -26 -85 -5 -10
13 -10 19 5 35 19 21 30 27 20 10z m75 0 c0 -5 -5 -10 -11 -10 -5 0 -7 5 -4
10 3 6 8 10 11 10 2 0 4 -4 4 -10z m325 0 c-3 -5 1 -10 9 -10 9 0 16 6 16 13
0 6 9 1 20 -13 13 -18 16 -28 8 -37 -14 -17 -59 -17 -83 0 -17 14 -17 15 1 35
20 21 40 30 29 12z m75 0 c0 -5 -4 -10 -10 -10 -5 0 -10 5 -10 10 0 6 5 10 10
10 6 0 10 -4 10 -10z m-213 -238 c7 -4 10 -17 7 -28 -4 -16 -13 -19 -52 -19
-37 1 -48 5 -50 19 -2 10 2 22 10 27 16 11 69 11 85 1z m114 -61 c-19 -34 -71
-71 -102 -71 -16 0 -29 4 -29 8 0 5 14 9 32 9 25 0 39 8 62 36 31 39 54 50 37
18z m-270 -98 c-1 -7 2 -27 8 -44 7 -21 7 -37 0 -50 -8 -16 -4 -22 23 -39 31
-19 34 -19 45 -3 7 9 16 31 19 50 9 49 20 48 34 -2 15 -55 23 -60 61 -45 30
13 35 25 20 49 -6 10 -4 25 5 44 9 16 13 34 11 41 -3 6 16 33 42 59 l47 47 78
-111 c81 -115 89 -143 38 -133 -35 7 -102 -21 -102 -42 0 -17 -16 -18 -27 -1
-4 6 -16 48 -25 92 -12 57 -16 65 -12 30 3 -27 8 -65 11 -82 l5 -33 -169 0
-170 0 8 48 c4 26 8 61 7 77 0 17 -6 -6 -14 -49 -15 -92 -27 -110 -49 -78 -18
24 -78 44 -111 36 -12 -3 -25 0 -29 6 -7 11 55 109 128 203 l30 38 46 -48 c25
-26 44 -54 42 -60z m133 92 c4 -11 -2 -15 -24 -15 -29 0 -38 9 -23 23 12 12
41 7 47 -8z m-70 -51 c15 4 26 2 26 -4 0 -5 -16 -10 -35 -10 -37 0 -85 35 -85
62 0 6 15 -3 34 -21 28 -27 40 -32 60 -27z m586 -37 c0 -55 -19 -95 -38 -83
-9 5 -8 14 2 34 8 15 17 44 21 65 10 52 15 46 15 -16z m-523 37 c-3 -3 -12 -4
-19 -1 -8 3 -5 6 6 6 11 1 17 -2 13 -5z m-525 -117 c-9 -19 -24 14 -29 60 l-4
48 19 -50 c10 -27 16 -54 14 -58z m244 -92 c17 -13 15 -13 -21 -4 -49 14 -56
19 -24 19 14 0 34 -7 45 -15z m564 0 c-24 -8 -46 -12 -49 -10 -7 7 42 24 69
24 17 0 11 -5 -20 -14z m60 -27 c27 -29 25 -34 -11 -42 -52 -10 -74 -7 -86 14
-14 21 -9 27 35 40 39 12 39 12 62 -12z m-782 7 c-2 -3 -72 -6 -154 -7 -85 -1
-136 -4 -119 -8 27 -7 26 -7 -7 -5 -34 3 -42 -2 -78 -42 -22 -25 -40 -49 -40
-54 0 -4 99 -8 220 -9 220 0 221 0 231 22 l10 23 -5 -22 c-4 -22 -1 -23 60
-23 54 0 64 3 65 18 1 16 2 16 6 0 5 -21 63 -25 64 -5 0 9 2 9 6 -1 4 -10 52
-13 211 -12 114 0 338 0 497 -2 l290 -3 -290 -5 -290 -5 287 -3 c168 -1 289 2
293 7 3 5 -20 37 -50 70 l-56 59 -176 1 c-97 0 -178 3 -181 6 -3 3 77 5 179 5
l184 0 102 -102 c57 -57 103 -106 103 -110 0 -5 -423 -8 -940 -8 -517 0 -940
3 -940 7 0 4 46 54 102 110 l103 103 159 0 c88 0 157 -2 154 -5z m156 -8 c11
-8 15 -19 10 -31 -6 -16 -14 -18 -57 -13 -59 8 -62 9 -47 36 12 24 65 29 94 8z
m-311 -14 c-7 -2 -21 -2 -30 0 -10 3 -4 5 12 5 17 0 24 -2 18 -5z m95 0 c-10
-2 -28 -2 -40 0 -13 2 -5 4 17 4 22 1 32 -1 23 -4z m1005 0 c-7 -2 -19 -2 -25
0 -7 3 -2 5 12 5 14 0 19 -2 13 -5z m90 0 c-7 -2 -21 -2 -30 0 -10 3 -4 5 12
5 17 0 24 -2 18 -5z m95 0 c-10 -2 -26 -2 -35 0 -10 3 -2 5 17 5 19 0 27 -2
18 -5z m-1353 -13 c-3 -5 2 -10 11 -10 15 0 16 -2 5 -12 -11 -11 -14 -10 -18
0 -3 6 -10 9 -16 5 -7 -4 -6 1 2 10 15 18 26 23 16 7z m1357 -11 c28 2 38 -1
33 -8 -8 -13 -74 -11 -82 2 -3 5 -9 3 -14 -4 -6 -11 -11 -11 -21 -1 -9 9 -8
12 6 12 11 0 15 4 10 13 -5 7 -1 6 10 -3 11 -8 34 -13 58 -11z m-1397 -9 c-3
-5 -17 -10 -30 -10 -13 0 -27 5 -30 10 -4 6 8 10 30 10 22 0 34 -4 30 -10z
m151 3 c-11 -11 -77 -13 -71 -2 4 5 22 9 42 9 20 0 33 -3 29 -7z m89 -3 c-3
-5 -22 -10 -41 -10 -19 0 -34 5 -34 10 0 6 18 10 41 10 24 0 38 -4 34 -10z
m60 0 c4 -6 -5 -10 -20 -10 -15 0 -24 4 -20 10 3 6 12 10 20 10 8 0 17 -4 20
-10z m265 0 c0 -5 -16 -10 -35 -10 -19 0 -35 5 -35 10 0 6 16 10 35 10 19 0
35 -4 35 -10z m90 0 c0 -5 -16 -10 -35 -10 -19 0 -35 5 -35 10 0 6 16 10 35
10 19 0 35 -4 35 -10z m110 0 c0 -5 -18 -10 -40 -10 -22 0 -40 5 -40 10 0 6
18 10 40 10 22 0 40 -4 40 -10z m95 0 c4 -6 -8 -10 -29 -10 -20 0 -36 5 -36
10 0 6 13 10 29 10 17 0 33 -4 36 -10z m289 2 c2 -4 -9 -9 -25 -10 -16 -1 -29
2 -29 8 0 12 47 14 54 2z m59 1 c-7 -2 -21 -2 -30 0 -10 3 -4 5 12 5 17 0 24
-2 18 -5z m52 -3 c8 -13 -5 -13 -25 0 -13 8 -13 10 2 10 9 0 20 -4 23 -10z
m-1205 -27 c0 -2 -10 -3 -22 -2 -13 2 -27 1 -33 -2 -5 -2 -30 -2 -55 2 l-45 7
47 -1 c26 -1 50 2 53 5 6 6 55 -2 55 -9z m113 0 c-13 -2 -35 -2 -50 0 -16 2
-5 4 22 4 28 0 40 -2 28 -4z m84 1 c-3 -3 -12 -4 -19 -1 -8 3 -5 6 6 6 11 1
17 -2 13 -5z m50 0 c-3 -3 -12 -4 -19 -1 -8 3 -5 6 6 6 11 1 17 -2 13 -5z m86
-1 c-7 -2 -21 -2 -30 0 -10 3 -4 5 12 5 17 0 24 -2 18 -5z m44 1 c-3 -3 -12
-4 -19 -1 -8 3 -5 6 6 6 11 1 17 -2 13 -5z m76 -1 c-7 -2 -19 -2 -25 0 -7 3
-2 5 12 5 14 0 19 -2 13 -5z m80 0 c-7 -2 -21 -2 -30 0 -10 3 -4 5 12 5 17 0
24 -2 18 -5z m110 0 c-7 -2 -19 -2 -25 0 -7 3 -2 5 12 5 14 0 19 -2 13 -5z
m90 0 c-7 -2 -19 -2 -25 0 -7 3 -2 5 12 5 14 0 19 -2 13 -5z m114 1 c-3 -3
-12 -4 -19 -1 -8 3 -5 6 6 6 11 1 17 -2 13 -5z m86 -1 c-7 -2 -19 -2 -25 0 -7
3 -2 5 12 5 14 0 19 -2 13 -5z m70 0 c-7 -2 -21 -2 -30 0 -10 3 -4 5 12 5 17
0 24 -2 18 -5z m175 0 c-26 -2 -71 -2 -100 0 -29 2 -8 3 47 3 55 0 79 -1 53
-3z m115 0 c-7 -2 -19 -2 -25 0 -7 3 -2 5 12 5 14 0 19 -2 13 -5z m41 -24 c-3
-5 -47 -9 -97 -9 -61 0 -87 3 -77 10 8 5 50 7 93 5 72 -3 77 -2 65 13 -12 15
-11 16 4 3 10 -7 15 -17 12 -22z m64 24 c-10 -2 -28 -2 -40 0 -13 2 -5 4 17 4
22 1 32 -1 23 -4z m-1493 -23 c-3 -5 -25 -10 -48 -10 -31 0 -38 3 -27 10 20
13 83 13 75 0z m159 -2 c-3 -4 -33 -8 -67 -7 -35 0 -54 3 -44 7 25 10 117 10
111 0z m181 1 c-4 -5 -40 -9 -81 -9 -45 0 -73 4 -69 9 3 6 39 10 80 10 45 0
73 -4 70 -10z m135 0 c0 -5 -22 -9 -50 -9 -27 0 -50 4 -50 8 0 5 23 9 50 9 28
0 50 -3 50 -8z m70 1 c0 -5 -9 -10 -21 -10 -11 0 -17 5 -14 10 3 6 13 10 21
10 8 0 14 -4 14 -10z m410 0 c0 -6 -70 -10 -190 -10 -120 0 -190 4 -190 10 0
6 70 10 190 10 120 0 190 -4 190 -10z m155 0 c4 -6 -18 -10 -59 -10 -37 0 -66
4 -66 10 0 6 26 10 59 10 33 0 63 -4 66 -10z m125 0 c0 -5 -20 -10 -44 -10
-25 0 -48 5 -51 10 -4 6 13 10 44 10 28 0 51 -4 51 -10z m290 0 c11 -7 4 -10
-27 -10 -24 0 -43 5 -43 10 0 13 50 13 70 0z"/>
<path d="M169 247 c4 -4 140 -6 302 -5 l294 3 -302 5 c-166 3 -299 2 -294 -3z"/>
<path d="M782 238 c-5 -7 -12 -22 -14 -33 -3 -19 3 -20 237 -23 132 -1 245 0
253 3 10 4 10 11 -3 35 l-16 30 -223 0 c-167 0 -226 -3 -234 -12z m462 -14 c3
-9 6 -19 6 -24 0 -4 -106 -8 -235 -8 -129 0 -235 4 -235 8 0 39 5 40 235 40
194 0 224 -2 229 -16z"/>
</g>
</svg>
